fd_8_states
version=1
nRows=43
nColumns=17
inDegrees=yes

# SIMM Motion File Header:
name fd_8_states
datacolumns 17
datarows 43
otherdata 1
range 0.446897 0.540215
endheader
time	/jointset/r_shoulder/r_shoulder_elev/value	/jointset/r_shoulder/r_shoulder_elev/speed	/jointset/r_elbow/r_elbow_flex/value	/jointset/r_elbow/r_elbow_flex/speed	/forceset/TRIlong/activation	/forceset/TRIlong/fiber_length	/forceset/TRIlat/activation	/forceset/TRIlat/fiber_length	/forceset/TRImed/activation	/forceset/TRImed/fiber_length	/forceset/BIClong/activation	/forceset/BIClong/fiber_length	/forceset/BICshort/activation	/forceset/BICshort/fiber_length	/forceset/BRA/activation	/forceset/BRA/fiber_length
      0.446897	     -0.011098	     -0.003624	     27.468965	     33.434330	      0.020000	      0.147222	      0.057033	      0.080758	      0.054997	      0.075828	      0.192651	      0.139296	      0.036462	      0.139534	      0.020000	      0.086824
      0.450358	     -0.011064	      0.024695	     27.585472	     33.878649	      0.020000	      0.147269	      0.057411	      0.080799	      0.055224	      0.075871	      0.194434	      0.139234	      0.036619	      0.139483	      0.020000	      0.086798
      0.452510	     -0.010990	      0.043770	     27.658662	     34.157329	      0.020000	      0.147298	      0.057301	      0.080826	      0.055214	      0.075899	      0.195315	      0.139195	      0.037164	      0.139450	      0.020000	      0.086782
      0.454662	     -0.010880	      0.057032	     27.732472	     34.457632	      0.020000	      0.147327	      0.057178	      0.080854	      0.055198	      0.075928	      0.195998	      0.139157	      0.037585	      0.139415	      0.020000	      0.086765
      0.457877	     -0.010688	      0.058237	     27.844057	     34.967592	      0.020000	      0.147371	      0.057002	      0.080899	      0.055174	      0.075972	      0.196729	      0.139101	      0.037977	      0.139361	      0.020000	      0.086740
      0.459797	     -0.010585	      0.047384	     27.911537	     35.308505	      0.020000	      0.147398	      0.056901	      0.080926	      0.055160	      0.075999	      0.197043	      0.139068	      0.038123	      0.139329	      0.020000	      0.086725
      0.460423	     -0.010557	      0.042066	     27.933680	     35.425041	      0.020000	      0.147407	      0.056915	      0.080935	      0.055237	      0.076008	      0.197358	      0.139057	      0.038112	      0.139318	      0.020000	      0.086721
      0.461049	     -0.010533	      0.036041	     27.955896	     35.543725	      0.020000	      0.147416	      0.057094	      0.080944	      0.055504	      0.076016	      0.198051	      0.139046	      0.038059	      0.139308	      0.020000	      0.086716
      0.464180	     -0.010469	      0.005792	     28.068100	     36.139963	      0.020000	      0.147460	      0.057753	      0.080986	      0.056481	      0.076058	      0.200796	      0.138990	      0.037801	      0.139258	      0.020000	      0.086691
      0.468245	     -0.010494	     -0.013472	     28.216515	     36.864093	      0.020000	      0.147519	      0.058218	      0.081042	      0.057171	      0.076111	      0.203071	      0.138914	      0.037482	      0.139196	      0.020000	      0.086658
      0.470139	     -0.010520	     -0.013103	     28.286630	     37.177092	      0.020000	      0.147547	      0.058367	      0.081068	      0.057345	      0.076136	      0.203869	      0.138878	      0.037347	      0.139168	      0.020000	      0.086642
      0.471136	     -0.010532	     -0.010872	     28.323791	     37.336571	      0.020000	      0.147561	      0.058606	      0.081082	      0.057343	      0.076150	      0.204915	      0.138859	      0.037460	      0.139153	      0.020000	      0.086634
      0.472134	     -0.010541	     -0.007695	     28.361110	     37.493866	      0.020000	      0.147576	      0.058833	      0.081096	      0.057334	      0.076164	      0.205933	      0.138840	      0.037584	      0.139137	      0.020000	      0.086625
      0.477121	     -0.010536	      0.008591	     28.550069	     38.292958	      0.020000	      0.147651	      0.059531	      0.081165	      0.057291	      0.076238	      0.209490	      0.138741	      0.037957	      0.139056	      0.020000	      0.086583
      0.480077	     -0.010507	      0.009352	     28.664007	     38.804109	      0.020000	      0.147696	      0.059755	      0.081208	      0.057270	      0.076283	      0.210819	      0.138681	      0.038084	      0.139006	      0.020000	      0.086558
      0.481107	     -0.010498	      0.007410	     28.704074	     38.990370	      0.020000	      0.147712	      0.059989	      0.081223	      0.057586	      0.076299	      0.211762	      0.138661	      0.038345	      0.138988	      0.020000	      0.086549
      0.482833	     -0.010489	      0.003386	     28.771634	     39.306842	      0.020000	      0.147739	      0.060344	      0.081248	      0.058095	      0.076324	      0.213246	      0.138625	      0.038742	      0.138957	      0.020000	      0.086534
      0.486604	     -0.010487	     -0.001253	     28.921187	     39.996959	      0.020000	      0.147798	      0.060836	      0.081303	      0.058800	      0.076379	      0.215572	      0.138547	      0.039280	      0.138886	      0.020000	      0.086501
      0.489655	     -0.010491	     -0.000517	     29.044046	     40.551710	      0.020000	      0.147847	      0.061059	      0.081349	      0.059117	      0.076425	      0.216808	      0.138483	      0.039515	      0.138827	      0.020000	      0.086474
      0.490640	     -0.010491	      0.000055	     29.084070	     40.731220	      0.020000	      0.147863	      0.061102	      0.081365	      0.059249	      0.076440	      0.217355	      0.138463	      0.039504	      0.138809	      0.020000	      0.086465
      0.491624	     -0.010491	      0.000602	     29.124270	     40.911412	      0.020000	      0.147879	      0.061126	      0.081380	      0.059477	      0.076455	      0.218310	      0.138442	      0.039437	      0.138790	      0.020000	      0.086456
      0.496548	     -0.010485	      0.000747	     29.327967	     41.831326	      0.020000	      0.147959	      0.061201	      0.081459	      0.060185	      0.076530	      0.221687	      0.138337	      0.039115	      0.138701	      0.020000	      0.086411
      0.499445	     -0.010489	     -0.004243	     29.449945	     42.395635	      0.020000	      0.148008	      0.061223	      0.081507	      0.060395	      0.076576	      0.222912	      0.138274	      0.038936	      0.138649	      0.020000	      0.086384
      0.500363	     -0.010494	     -0.006876	     29.488951	     42.578460	      0.020000	      0.148023	      0.061274	      0.081523	      0.060461	      0.076591	      0.223350	      0.138254	      0.038927	      0.138633	      0.020000	      0.086375
      0.501281	     -0.010501	     -0.009841	     29.528126	     42.762595	      0.020000	      0.148039	      0.061558	      0.081538	      0.060607	      0.076606	      0.224454	      0.138234	      0.039235	      0.138616	      0.020000	      0.086366
      0.502199	     -0.010512	     -0.012920	     29.567471	     42.947579	      0.020000	      0.148054	      0.061807	      0.081553	      0.060735	      0.076621	      0.225458	      0.138214	      0.039516	      0.138598	      0.020000	      0.086358
      0.506790	     -0.010609	     -0.029985	     29.766768	     43.889209	      0.020000	      0.148133	      0.062608	      0.081627	      0.061144	      0.076697	      0.229104	      0.138109	      0.040395	      0.138505	      0.020000	      0.086314
      0.509508	     -0.010709	     -0.044506	     29.886854	     44.469703	      0.020000	      0.148181	      0.062861	      0.081673	      0.061273	      0.076743	      0.230486	      0.138046	      0.040661	      0.138448	      0.020000	      0.086287
      0.510385	     -0.010751	     -0.050369	     29.925925	     44.661711	      0.020000	      0.148196	      0.062973	      0.081687	      0.061334	      0.076759	      0.231003	      0.138026	      0.040702	      0.138429	      0.020000	      0.086278
      0.511261	     -0.010798	     -0.056712	     29.965166	     44.855711	      0.020000	      0.148212	      0.063322	      0.081702	      0.061529	      0.076774	      0.232235	      0.138006	      0.040629	      0.138411	      0.020000	      0.086270
      0.512845	     -0.010896	     -0.067772	     30.036498	     45.206974	      0.020000	      0.148240	      0.063837	      0.081728	      0.061818	      0.076801	      0.234166	      0.137968	      0.040500	      0.138378	      0.020000	      0.086254
      0.516969	     -0.011221	     -0.087173	     30.224782	     46.108135	      0.020000	      0.148314	      0.064680	      0.081796	      0.062290	      0.076872	      0.237773	      0.137867	      0.040178	      0.138295	      0.020000	      0.086212
      0.519865	     -0.011484	     -0.094170	     30.359199	     46.733619	      0.020000	      0.148367	      0.065005	      0.081846	      0.062471	      0.076924	      0.239438	      0.137795	      0.039963	      0.138238	      0.020000	      0.086183
      0.521065	     -0.011599	     -0.096412	     30.415468	     46.993437	      0.020000	      0.148390	      0.065127	      0.081867	      0.062779	      0.076945	      0.240268	      0.137766	      0.040003	      0.138214	      0.020000	      0.086170
      0.522266	     -0.011715	     -0.097933	     30.472049	     47.252387	      0.020000	      0.148412	      0.065242	      0.081888	      0.063179	      0.076966	      0.241160	      0.137736	      0.040323	      0.138189	      0.020000	      0.086158
      0.526373	     -0.012117	     -0.095822	     30.667914	     48.125833	      0.020000	      0.148489	      0.065500	      0.081963	      0.064068	      0.077038	      0.243415	      0.137633	      0.041018	      0.138099	      0.020000	      0.086115
      0.528733	     -0.012339	     -0.091832	     30.782087	     48.624703	      0.020000	      0.148534	      0.065585	      0.082008	      0.064361	      0.077081	      0.244299	      0.137575	      0.041239	      0.138046	      0.020000	      0.086089
      0.529973	     -0.012451	     -0.089818	     30.842529	     48.887829	      0.020000	      0.148558	      0.065618	      0.082031	      0.064474	      0.077104	      0.244675	      0.137544	      0.041323	      0.138017	      0.020000	      0.086076
      0.530805	     -0.012525	     -0.088612	     30.883278	     49.065047	      0.020000	      0.148574	      0.065971	      0.082047	      0.064635	      0.077119	      0.245847	      0.137523	      0.041303	      0.137998	      0.020000	      0.086067
      0.531929	     -0.012624	     -0.086521	     30.938567	     49.303609	      0.020000	      0.148596	      0.066457	      0.082068	      0.064843	      0.077140	      0.247496	      0.137494	      0.041257	      0.137972	      0.020000	      0.086055
      0.535547	     -0.012913	     -0.070815	     31.118325	     50.052804	      0.020000	      0.148667	      0.067524	      0.082133	      0.065300	      0.077208	      0.251547	      0.137399	      0.041116	      0.137891	      0.020000	      0.086015
      0.539166	     -0.013125	     -0.045719	     31.300761	     50.789398	      0.020000	      0.148740	      0.068107	      0.082200	      0.065549	      0.077278	      0.254214	      0.137301	      0.040982	      0.137810	      0.020000	      0.085975
      0.540215	     -0.013169	     -0.038434	     31.354185	     51.005736	      0.020000	      0.148761	      0.068219	      0.082220	      0.065636	      0.077299	      0.254888	      0.137272	      0.040953	      0.137786	      0.020000	      0.085963
